<?xml version="1.0" standalone="no"?><!DOCTYPE svg PUBLIC "-//W3C//DTD SVG 1.1//EN" "http://www.w3.org/Graphics/SVG/1.1/DTD/svg11.dtd"><svg t="1727350315985" class="icon" viewBox="0 0 1024 1024" version="1.1" xmlns="http://www.w3.org/2000/svg" p-id="5380" xmlns:xlink="http://www.w3.org/1999/xlink" width="200" height="200"><path d="M947.6 840.4H261.2v-150.8h676V186.4H812V94.8h136c37.6 0 68.4 30.8 68.4 68.4v608.4c0 38-30.8 68.8-68.8 68.8z m-673.6-12.8h673.6c30.8 0 56-25.2 56-56V163.2c0-30.8-24.8-55.6-55.6-55.6h-123.2v65.6h125.6v528.8h-676v125.6z m-79.2-238.4H111.2V163.6c0-38 30.8-68.8 68.8-68.8h154v91.2H194.8v403.2zM124 576.8h57.6V173.6h139.6V107.6H180c-30.8 0-56 25.2-56 56v413.2z" fill="#f6b75b" p-id="5381"></path><path d="M978.4 133.2c-6.4-6.4-15.6-10.4-25.2-10.4h-134.4v36h146.8v558.8H267.6v95.6h680c22.8 0 41.2-18.4 41.2-41.2V158.4c0-9.6-4-18.8-10.4-25.2zM328 122.8H180c-22.8 0-41.2 18.4-41.2 41.2v419.2h28V158.4H328v-35.6z" fill="#f6b75b" p-id="5382"></path><path d="M710.4 947.6h-284l50-119.6h184l50 119.6z m-265.2-12.8h245.6l-39.2-94.4h-167.2l-39.2 94.4z" fill="#f6b75b" p-id="5383"></path><path d="M467.6 920l26.8-64.4h147.6l26.8 64.4z" fill="#f6b75b" p-id="5384"></path><path d="M825.6 1003.2H310.8v-68.4h514.8v68.4z m-502-12.8h489.2v-42.8H323.6v42.8z" fill="#f6b75b" p-id="5385"></path><path d="M338.4 962.4h459.2v13.2H338.4z" fill="#f6b75b" p-id="5386"></path><path d="M0 990.4h1024v12.8H0z" fill="#f6b75b" p-id="5387"></path><path d="M568.8 766m-33.6 0a33.6 33.6 0 1 0 67.2 0 33.6 33.6 0 1 0-67.2 0Z" fill="#f6b75b" p-id="5388"></path><path d="M568.8 806c-22 0-40-18-40-40s18-40 40-40 40 18 40 40-18 40-40 40z m0-67.2c-15.2 0-27.2 12.4-27.2 27.2s12.4 27.2 27.2 27.2c15.2 0 27.2-12.4 27.2-27.2s-12-27.2-27.2-27.2zM238.4 1003.2H68.8c-19.6 0-36-16-36-36V612c0-19.6 16-36 36-36h169.6c19.6 0 36 16 36 36v355.2c-0.4 20-16.4 36-36 36zM68.8 589.2c-12.8 0-23.2 10.4-23.2 23.2v355.2c0 12.8 10.4 23.2 23.2 23.2h169.6c12.8 0 23.2-10.4 23.2-23.2v-355.2c0-12.8-10.4-23.2-23.2-23.2H68.8z" fill="#f6b75b" p-id="5389"></path><path d="M234.8 918H72c-8 0-14.8-6.8-14.8-14.8v-289.6c0-8 6.8-14.8 14.8-14.8h50.4l9.2 16.8h43.6l9.2-16.8h50.4c8 0 14.8 6.8 14.8 14.8v289.6c0 8-6.4 14.8-14.8 14.8zM72 611.6c-1.2 0-2 0.8-2 2v289.6c0 1.2 0.8 2 2 2h162.8c1.2 0 2-0.8 2-2v-289.6c0-1.2-0.8-2-2-2H192l-9.2 16.8H124l-9.2-16.8H72z" fill="#f6b75b" p-id="5390"></path><path d="M85.2 890v-263.6h20.8l9.2 16.8H192l9.2-16.8h20.8v263.6z" fill="#f6b75b" p-id="5391"></path><path d="M321.6 448.8V86c0-36 29.2-65.2 65.2-65.2h372.8c36 0 65.2 29.2 65.2 65.2V292c0 36-29.2 65.2-65.2 65.2H408l-86.4 91.6zM386.8 33.6c-28.8 0-52.4 23.6-52.4 52.4v330.8l68.4-72H760c28.8 0 52.4-23.6 52.4-52.4V86c0-28.8-23.6-52.4-52.4-52.4H386.8zM168.8 973.6h-30.4c-10.4 0-18.8-8.4-18.8-18.8v-9.6c0-10.4 8.4-18.8 18.8-18.8h30.4c10.4 0 18.8 8.4 18.8 18.8v9.6c0 10.4-8.4 18.8-18.8 18.8z m-30.4-34.4c-3.2 0-6 2.8-6 6v9.6c0 3.2 2.8 6 6 6h30.4c3.2 0 6-2.8 6-6v-9.6c0-3.2-2.8-6-6-6h-30.4z" fill="#f6b75b" p-id="5392"></path><path d="M693.2 289.2h-10v-12.8h10c5.2 0 9.2-4 9.2-9.2v-8c0-5.2-4-9.2-9.2-9.2h-1.2v-12.8h0.8c12 0 22 10 22 22v8c0.4 12-9.6 22-21.6 22z" fill="#f6b75b" p-id="5393"></path><path d="M692 250h0.8-0.8z" fill="#f6b75b" p-id="5394"></path><path d="M687.6 317.6H532l-42.4-22V172.8l16.4-13.2 8 10-11.6 9.2v108.8l32.4 17.2h152.4c2.8 0 4.8-2 4.8-4.8v-6c0-2.8-2-4.8-4.8-4.8h-0.8v-12.8h0.8c9.6 0 17.6 8 17.6 17.6V300c0.4 9.6-7.6 17.6-17.2 17.6z" fill="#f6b75b" p-id="5395"></path><path d="M502.8 313.6h-80.8V151.6h80.8v162z m-68.4-12.8h55.2V164.4h-55.2v136.4z" fill="#f6b75b" p-id="5396"></path><path d="M449.6 179.2h25.2v106.4h-25.2z" fill="#f6b75b" p-id="5397"></path><path d="M462.4 187.6m-8.8 0a8.8 8.8 0 1 0 17.6 0 8.8 8.8 0 1 0-17.6 0Z" fill="#f6b75b" p-id="5398"></path><path d="M564 304.8h115.2v12.8H564z" fill="#f6b75b" p-id="5399"></path><path d="M673.6 197.2h27.6v12.8h-27.6z" fill="#f6b75b" p-id="5400"></path><path d="M665.2 236.8h27.6v12.8h-27.6z" fill="#f6b75b" p-id="5401"></path><path d="M657.2 276.4h27.6v12.8h-27.6z" fill="#f6b75b" p-id="5402"></path><path d="M687.6 317.6H532l-42.4-22V172.8l16.4-13.2 18.4-14.8c1.2-0.8 2-1.6 3.2-2.4l1.2-0.8c2-1.6 3.2-2.4 3.6-2.8 14.8-11.2 25.6-26.8 31.6-44l8.4-24.4c2.8-7.6 9.6-12.4 17.6-12.4 6.8 0 12.8 3.6 16 9.2 7.6 13.6 10 30 5.6 45.2l-12.8 46h103.2c5.2 0 10 1.6 14 5.2 0.4 0.4 1.2 0.8 1.6 1.6 0.8 0.8 2 2 2.8 3.2 2.4 3.6 3.6 8 3.6 12.4V188c0 4.4-1.2 8.8-3.6 12.4-0.8 1.2-1.6 2.4-2.8 3.2-0.4 0.4-1.2 0.8-1.6 1.6l-0.8 0.8c3.2 4 4.8 8.8 4.8 13.6v8c0 4.4-1.2 8.8-3.6 12.4-1.6 2.4-3.6 4.4-6 6 2.8 3.6 4.4 8.4 4.4 13.2v8c0 8.4-4.8 15.6-11.6 19.6 1.2 2.4 1.6 4.8 1.6 7.6V300c0.4 9.6-7.6 17.6-17.2 17.6z m-152.4-12.8h152.4c2.8 0 4.8-2 4.8-4.8v-6c0-2.8-2-4.8-4.8-4.8v-12.8h5.6c5.2 0 9.2-4 9.2-9.2v-8c0-4.8-4-9.2-8.8-9.2l-7.6-0.4 3.2-12.4h9.2c3.2 0 6-1.6 7.6-4 1.2-1.6 1.6-3.2 1.6-5.2v-8c0-4-2.8-8-6.8-8.8H699.6l-5.6-1.6 2-11.2 6.8-0.4c2 0 4.4-0.8 6-2 0.4-0.4 0.4-0.4 0.8-0.4l1.2-1.2c1.2-1.6 1.6-3.2 1.6-5.2v-7.2c0-2-0.4-3.6-1.6-5.2l-1.2-1.2c-0.4-0.4-0.4-0.4-0.8-0.4-1.6-1.6-3.6-2-6-2h-120l17.6-62.4c3.2-11.6 1.6-24.8-4.4-35.2-1.2-2-2.8-2.8-5.2-2.8-2.4 0-4.8 1.6-5.6 4l-8.4 24.4c-6.8 20-19.6 37.2-36 50l-3.2-4 2.8 4s-2.8 2-7.6 6l-18.4 14.8-11.6 9.2v108.8l32.4 14.8z" fill="#f6b75b" p-id="5403"></path><path d="M538.8 289.6l-21.2-11.2v-92l6-4.8c2.4-2 4.4-3.6 6.4-5.2 2.4-1.6 4.4-3.6 6.8-5.2 10.4-8.4 21.6-16.8 30.8-27.6 4-4.8 8-10 11.2-15.2l-16.4 58h100c-4.4 3.2-7.2 7.6-8.4 13.2-0.4 1.2-0.4 2.4-0.4 3.6 0 8.4 4.8 15.6 11.6 18.8-8.4 1.2-15.6 7.2-17.6 16v0.4c-1.6 6 0 12.4 4 17.6 1.6 2.4 4 4 6.4 5.6-8.8 0.8-16.4 7.2-18.4 16v0.8c-0.8 4-0.8 7.6 0.4 11.2h-101.2z" fill="#f6b75b" p-id="5404"></path><path d="M717.6 635.6H344.4l67.6-66.8v-99.6c0-26.8 22-48.8 48.8-48.8h256.8c26.8 0 48.8 22 48.8 48.8v117.6c-0.4 26.8-22 48.8-48.8 48.8z m-342-12.8h342c20 0 36-16 36-36v-117.6c0-20-16-36-36-36h-256.8c-20 0-36 16-36 36v104.8l-49.2 48.8z" fill="#f6b75b" p-id="5405"></path><path d="M412 607.6l28-27.6v-111.2c0-11.6 9.6-21.2 21.2-21.2h256.8c11.6 0 21.2 9.6 21.2 21.2v117.6c0 11.6-9.6 21.2-21.2 21.2H412z" fill="#f6b75b" p-id="5406"></path><path d="M147.2 798.8h-12.8c0-9.2-7.6-16.4-16.4-16.4v-12.8c16-0.4 29.2 12.8 29.2 29.2z" fill="#f6b75b" p-id="5407"></path><path d="M176 798.8h-12.8c0-25.2-20.4-45.6-45.6-45.6v-12.8c32.4 0 58.4 26 58.4 58.4z" fill="#f6b75b" p-id="5408"></path><path d="M204.8 798.8H192c0-41.2-33.2-74.4-74.4-74.4v-12.8c48.4 0 87.2 39.2 87.2 87.2z" fill="#f6b75b" p-id="5409"></path><path d="M535.012 514.156l9.052 9.052-65.344 65.328-9.052-9.052z" fill="#f6b75b" p-id="5410"></path><path d="M550 533.6c-14 0-25.2-11.2-25.2-25.2s11.2-25.2 25.2-25.2 25.2 11.2 25.2 25.2-11.6 25.2-25.2 25.2z m0-37.6c-6.8 0-12.4 5.6-12.4 12.4s5.6 12.4 12.4 12.4c6.8 0 12.4-5.6 12.4-12.4s-5.6-12.4-12.4-12.4z" fill="#f6b75b" p-id="5411"></path><path d="M606.4 584c-14 0-25.2-11.2-25.2-25.2s11.2-25.2 25.2-25.2 25.2 11.2 25.2 25.2c-0.4 14-11.6 25.2-25.2 25.2z m0-37.2c-6.8 0-12.4 5.6-12.4 12.4 0 6.8 5.6 12.4 12.4 12.4 6.8 0 12.4-5.6 12.4-12.4-0.4-6.8-5.6-12.4-12.4-12.4z" fill="#f6b75b" p-id="5412"></path><path d="M672 514.8c-14 0-25.2-11.2-25.2-25.2s11.2-25.2 25.2-25.2 25.2 11.2 25.2 25.2c-0.4 14-11.6 25.2-25.2 25.2z m0-37.6c-6.8 0-12.4 5.6-12.4 12.4s5.6 12.4 12.4 12.4c6.8 0 12.4-5.6 12.4-12.4s-5.6-12.4-12.4-12.4z" fill="#f6b75b" p-id="5413"></path><path d="M653.64 497.96l9.636 8.428-38.456 43.952-9.636-8.428z" fill="#f6b75b" p-id="5414"></path><path d="M570.152 514.368l27.152 27.152-9.048 9.052-27.156-27.152z" fill="#f6b75b" p-id="5415"></path></svg>